<svg xmlns="http://www.w3.org/2000/svg" viewBox="0 0 32 32" fill="none">
  <!-- Background circle -->
  <circle cx="16" cy="16" r="15" fill="#2563eb" stroke="#1d4ed8" stroke-width="1"/>
  
  <!-- Houses -->
  <g fill="#ffffff">
    <!-- House 1 -->
    <path d="M8 18h3v5h-3z"/>
    <path d="M7 17l5-4 5 4v1H7z"/>
    <rect x="9" y="20" width="1" height="1" fill="#2563eb"/>
    
    <!-- House 2 -->
    <path d="M13 17h3v6h-3z"/>
    <path d="M12 16l5-4 5 4v1H12z"/>
    <rect x="14" y="18" width="1" height="1" fill="#2563eb"/>
    
    <!-- House 3 -->
    <path d="M18 18h3v5h-3z"/>
    <path d="M17 17l5-4 5 4v1H17z"/>
    <rect x="19" y="20" width="1" height="1" fill="#2563eb"/>
  </g>
  
  <!-- Tree -->
  <g fill="#22c55e">
    <circle cx="11" cy="13" r="2"/>
    <circle cx="21" cy="13" r="2"/>
    <rect x="10" y="14" width="1" height="3" fill="#a3e635"/>
    <rect x="21" y="14" width="1" height="3" fill="#a3e635"/>
  </g>
  
  <!-- Connection lines -->
  <path d="M11 16 Q16 17 21 16" stroke="#ffffff" stroke-width="1" fill="none" opacity="0.8"/>
</svg> 