<svg xmlns="http://www.w3.org/2000/svg" viewBox="0 0 48 48" fill="none">
  <!-- Background circle -->
  <circle cx="24" cy="24" r="22" fill="#2563eb" stroke="#1d4ed8" stroke-width="2"/>
  
  <!-- Houses -->
  <g fill="#ffffff">
    <!-- House 1 -->
    <path d="M12 28h4v8h-4z"/>
    <path d="M10 26l8-6 8 6v2H10z"/>
    <rect x="13" y="30" width="2" height="2" fill="#2563eb"/>
    
    <!-- House 2 -->
    <path d="M20 26h4v10h-4z"/>
    <path d="M18 24l8-6 8 6v2H18z"/>
    <rect x="21" y="28" width="2" height="2" fill="#2563eb"/>
    
    <!-- House 3 -->
    <path d="M28 28h4v8h-4z"/>
    <path d="M26 26l8-6 8 6v2H26z"/>
    <rect x="29" y="30" width="2" height="2" fill="#2563eb"/>
  </g>
  
  <!-- Tree -->
  <g fill="#22c55e">
    <circle cx="16" cy="20" r="3"/>
    <circle cx="32" cy="20" r="3"/>
    <rect x="15" y="22" width="2" height="4" fill="#a3e635"/>
    <rect x="31" y="22" width="2" height="4" fill="#a3e635"/>
  </g>
  
  <!-- Connection lines representing community -->
  <path d="M16 24 Q24 26 32 24" stroke="#ffffff" stroke-width="1.5" fill="none" opacity="0.8"/>
  <path d="M16 20 Q24 18 32 20" stroke="#ffffff" stroke-width="1.5" fill="none" opacity="0.8"/>
</svg> 